<svg xmlns="http://www.w3.org/2000/svg" viewBox="0 0 512 512">
  <!-- Background circle -->
  <circle cx="256" cy="256" r="256" fill="#1e3a5f"/>
  
  <!-- Shield shape -->
  <path d="M256 80 L380 130 L380 270 Q380 360 256 420 Q132 360 132 270 L132 130 Z" 
        fill="#2c5282" stroke="#4facfe" stroke-width="8"/>
  
  <!-- Inner shield highlight -->
  <path d="M256 100 L364 145 L364 268 Q364 348 256 402 Q148 348 148 268 L148 145 Z" 
        fill="#1e3a5f"/>
  
  <!-- Lightning bolt / checkmark -->
  <path d="M220 200 L270 200 L245 255 L295 255 L235 340 L255 280 L205 280 Z" 
        fill="#4facfe" stroke="#a8d8ff" stroke-width="3" stroke-linejoin="round"/>
  
  <!-- Glow effect -->
  <path d="M220 200 L270 200 L245 255 L295 255 L235 340 L255 280 L205 280 Z" 
        fill="none" stroke="rgba(168,216,255,0.4)" stroke-width="8" stroke-linejoin="round"/>
</svg>
